# xmcd CD database file
#
# Track frame offsets:
#	150
#	22317
#	41712
#	66590
#	87875
#	104025
#	123887
#	144125
#	165735
#	183595
#	206130
#	226550
#	246342
#	265937
#
# Disc length: 3842 seconds
#
# Revision: 0
# Processed by: cddbd v1.4PL0 Copyright (c) Steve Scherf et al.
# Submitted via: CDex 1.51
#
DISCID=cc0f000e
DTITLE=Salsa - EXCITED MIX SALSA
DYEAR=1900
DGENRE=Salsa
TTITLE0=A MI DIOS TODO LE DEBO
TTITLE1=BARRANQUILLERO ARREBATAO
TTITLE2=CUERPO DE GUITARRA
TTITLE3=Mujeres
TTITLE4=ARRANCA EN FA
TTITLE5=LA NOCHE
TTITLE6=MI LIBERTAD
TTITLE7=A NUESTRO MODO
TTITLE8=CARRUSELS
TTITLE9=ME ENCANTA COMO  BAILAS
TTITLE10=LA GUERRA DE LOS CALLADOS
TTITLE11=QUE SUENE MI CAMPANA
TTITLE12=MIS PROBLEMAS
TTITLE13=MICAELA
EXTD=
EXTT0=
EXTT1=
EXTT2=
EXTT3=
EXTT4=
EXTT5=
EXTT6=
EXTT7=
EXTT8=
EXTT9=
EXTT10=
EXTT11=
EXTT12=
EXTT13=
PLAYORDER=
